<?xml version="1.0" encoding="iso-8859-1"?>
<!-- Generator: Adobe Illustrator 19.0.0, SVG Export Plug-In . SVG Version: 6.00 Build 0)  -->
<svg version="1.1" id="Capa_1" xmlns="http://www.w3.org/2000/svg" xmlns:xlink="http://www.w3.org/1999/xlink" x="0px" y="0px"
	 viewBox="0 0 512 512" style="enable-background:new 0 0 512 512;" xml:space="preserve">
<circle style="fill:#FFD164;" cx="256" cy="256" r="248.5"/>
<path style="fill:#FFE17D;" d="M357.924,227.994h0.04 M327.539,79.645h-102.03c-10.368,0-19.568,6.644-22.828,16.485
	l-54.913,165.734c-2.429,7.331-1.189,15.382,3.332,21.643c4.521,6.261,11.774,9.969,19.496,9.969h49.258l-40.94,130.336
	c-3.494,11.125,1.497,23.155,11.841,28.539c3.526,1.835,7.329,2.718,11.09,2.718c7.273,0,14.394-3.3,19.078-9.394L376.568,243.2
	c3.39-4.144,5.424-9.437,5.424-15.206c0-13.282-10.746-24.048-24.028-24.048h-0.04h-52.129l43.397-89.787
	c3.602-7.452,3.119-16.233-1.281-23.245C343.512,83.902,335.817,79.645,327.539,79.645L327.539,79.645z M327.539,127.742h0.04
	H327.539L327.539,127.742z"/>
<polygon style="fill:#FFFFFF;" points="357.924,227.994 267.461,227.994 327.539,103.694 225.509,103.694 170.596,269.428 
	252.614,269.428 201.857,431.019 "/>
<path style="fill:#FFC350;" d="M288.065,472.435c-137.243,0-248.5-111.258-248.5-248.5c0-60.457,21.608-115.855,57.498-158.938
	C42.343,110.581,7.5,179.214,7.5,256c0,137.242,111.257,248.5,248.5,248.5c76.787,0,145.421-34.844,191.004-89.564
	C403.921,450.827,348.522,472.435,288.065,472.435z"/>
<path d="M437.02,74.98C388.667,26.629,324.38,0,256,0S123.333,26.629,74.98,74.98C26.629,123.333,0,187.62,0,256
	s26.629,132.667,74.98,181.02C123.333,485.371,187.62,512,256,512s132.667-26.629,181.02-74.98C485.371,388.667,512,324.38,512,256
	S485.371,123.333,437.02,74.98z M426.413,426.413C380.894,471.932,320.374,497,256,497s-124.894-25.068-170.413-70.587
	S15,320.374,15,256S40.068,131.106,85.587,85.587S191.626,15,256,15s124.894,25.068,170.413,70.587S497,191.626,497,256
	S471.932,380.894,426.413,426.413z"/>
<path d="M357.924,220.494h-78.508l33.636-69.593c1.803-3.729,0.241-8.214-3.489-10.016c-3.731-1.805-8.214-0.241-10.016,3.489
	l-38.839,80.357c-1.124,2.324-0.973,5.063,0.399,7.25c1.372,2.187,3.772,3.514,6.354,3.514h75.238L221.687,392.917l38.083-121.242
	c0.716-2.278,0.304-4.761-1.109-6.686s-3.658-3.062-6.046-3.062h-71.632l49.944-150.734h84.659l-2.209,4.572
	c-1.803,3.729-0.241,8.214,3.489,10.016c3.729,1.803,8.214,0.241,10.016-3.489l7.412-15.335c1.124-2.324,0.973-5.063-0.399-7.25
	c-1.372-2.187-3.772-3.514-6.354-3.514h-102.03c-3.233,0-6.103,2.072-7.12,5.141l-54.914,165.734
	c-0.757,2.286-0.371,4.797,1.039,6.75s3.672,3.109,6.081,3.109h71.801l-47.695,151.844c-1.09,3.47,0.467,7.222,3.693,8.9
	c1.1,0.572,2.286,0.848,3.458,0.848c2.268,0,4.489-1.029,5.95-2.93L363.87,232.565c1.741-2.265,2.044-5.322,0.782-7.885
	C363.389,222.117,360.781,220.494,357.924,220.494z"/>
<g>
</g>
<g>
</g>
<g>
</g>
<g>
</g>
<g>
</g>
<g>
</g>
<g>
</g>
<g>
</g>
<g>
</g>
<g>
</g>
<g>
</g>
<g>
</g>
<g>
</g>
<g>
</g>
<g>
</g>
</svg>
